<svg width="512" height="512" viewBox="0 0 512 512" fill="none" xmlns="http://www.w3.org/2000/svg">
<g clip-path="url(#clip0_7_3)">
<circle cx="256" cy="256" r="256" fill="#1F1F1F"/>
<path d="M370 404C373.314 404 376 401.314 376 398V115C376 111.686 373.314 109 370 109H332.104C330.125 109 328.272 109.976 327.154 111.61L191.803 309.249C191.507 309.682 191.017 309.94 190.493 309.94V309.94C189.616 309.94 188.906 309.229 188.906 308.353V115C188.906 111.686 186.219 109 182.906 109H142C138.686 109 136 111.686 136 115V398C136 401.314 138.686 404 142 404H180.178C182.159 404 184.013 403.022 185.131 401.386L320.312 203.648C320.626 203.19 321.145 202.916 321.699 202.916V202.916C322.627 202.916 323.38 203.668 323.38 204.596V398C323.38 401.314 326.066 404 329.38 404H370Z" fill="#FAFAFA"/>
<path d="M136 115C136 111.686 138.686 109 142 109H370C373.314 109 376 111.686 376 115V153H136V115Z" fill="#FAFAFA"/>
<rect x="135" y="234" width="242" height="44" fill="#1F1F1F"/>
</g>
<defs>
<clipPath id="clip0_7_3">
<rect width="512" height="512" fill="white"/>
</clipPath>
</defs>
</svg>
